<svg width="80" height="80" viewBox="0 0 80 80" fill="none" xmlns="http://www.w3.org/2000/svg">
<g clip-path="url(#clip0)">
<path d="M65.3864 35.5323C65.0235 35.5594 57.9702 36.1438 51.2046 40.755C53.0644 34.8399 55.7962 29.3232 61.5519 21.2174C62.0026 20.5828 61.9893 19.7295 61.5198 19.1089C61.0504 18.4889 60.2333 18.2438 59.4998 18.505C59.0805 18.654 50.3192 21.8498 42.5582 30.5101C42.2322 23.2806 41.0815 10.8554 39.2266 4.43314C39.0336 3.76375 38.468 3.2685 37.7791 3.16471C37.0902 3.06093 36.4041 3.36811 36.0224 3.95113C33.131 8.36311 28.4188 18.6283 28.2252 29.7195C20.3241 20.5758 11.1965 16.9161 10.7535 16.7413C10.0193 16.4536 9.18274 16.6821 8.69724 17.3034C8.21174 17.9247 8.19154 18.7912 8.64848 19.4342C14.2265 27.2927 17.1346 32.101 19.1943 38.5233C11.2418 34.0033 1.8905 33.6766 1.78323 33.6766C1.02537 33.6766 0.349715 34.1559 0.0996512 34.8712C-0.150412 35.5873 0.0794509 36.3828 0.67222 36.855C0.846359 36.9936 18.114 50.9255 18.114 65.6298H21.6803C21.6803 58.6732 18.4992 51.2312 12.2239 43.5099C10.6462 41.5735 8.96611 39.7234 7.19128 37.966C11.2947 38.7887 16.9048 40.528 21.0583 44.1786C25.9774 48.4994 28.6187 54.7273 28.9106 62.6875L28.7378 67.7807L31.0692 67.8601L31.2315 70.514L34.7909 70.2967L34.4816 65.2181C34.1766 58.4357 35.0577 52.1221 37.1014 46.4515C38.3649 42.9381 40.1035 39.6134 42.2684 36.5708C46.2576 30.967 51.0715 27.2182 54.7786 24.9091C50.0141 32.4995 48.031 38.0364 46.3537 44.9602C41.1902 50.628 38.6993 58.2651 38.9514 67.6755C39.0357 70.7669 39.2802 73.3678 39.6981 75.6205L39.7037 75.6497C39.7183 75.7319 39.7337 75.8141 39.7497 75.8956L43.245 75.1823C43.2339 75.1266 43.2234 75.0702 43.2137 75.0138L43.2067 74.9768C42.8215 72.9025 42.5965 70.4834 42.5171 67.5794C42.2852 58.9498 44.5594 52.0434 49.2751 47.0519C52.4423 43.698 56.2337 41.7393 59.371 40.6046C57.7069 42.2506 56.0895 44.0316 54.8796 45.8622C47.501 57.0217 48.8662 71.214 50.0134 75.734C50.0434 75.8559 50.072 75.9583 50.0977 76.0454L53.5171 75.0333C53.5039 74.988 53.4893 74.9336 53.4718 74.8633C53.4342 74.7156 49.9508 59.7829 57.8546 47.83C59.7102 45.0249 62.8496 42.1649 65.3725 39.8662C65.8538 39.4281 66.3108 39.0102 66.7322 38.6201C67.2873 38.1047 67.4559 37.2946 67.1529 36.6001C66.8499 35.9056 66.1408 35.4786 65.3857 35.5351L65.3864 35.5323ZM33.5977 18.2633C34.4259 15.3705 35.4979 12.5529 36.8033 9.8412C38.4652 18.8853 39.1785 32.2585 39.0796 34.9075C37.7164 36.8662 36.5142 38.9322 35.484 41.0852C34.5123 38.912 33.3706 36.8181 32.0702 34.8246C31.4091 29.808 31.9336 24.0934 33.5977 18.2633ZM23.8383 41.8842C22.1784 35.1109 20.15 30.3367 15.7492 23.5181C19.6959 26.1232 24.7898 30.3102 28.8688 36.4462C30.8143 39.3696 32.3829 42.5271 33.5378 45.8434C32.5403 48.7536 31.8229 51.7523 31.3966 54.799C30.0655 49.6062 27.537 45.282 23.8383 41.8842Z" fill="#347AF4"/>
<path d="M78.9936 70.3016C78.9894 66.747 76.245 63.7978 72.7002 63.5387C71.2138 60.0225 67.8118 57.6988 63.9968 57.5922C60.181 57.4863 56.6551 59.6185 54.9757 63.0462C53.297 66.474 53.7741 70.5662 56.1967 73.5162H39.0127C38.2361 70.8644 35.9291 68.9495 33.1805 68.6744C33.1178 68.6681 33.0558 68.6626 32.9924 68.6584C32.7172 68.0085 32.3711 67.3907 31.9608 66.816C29.9261 63.9608 26.5151 62.4179 23.0268 62.7746C19.5391 63.1312 16.5105 65.333 15.0958 68.5407C13.3843 68.0705 11.7105 68.4188 10.3884 69.5771C9.25933 70.5851 8.58367 72.0046 8.51193 73.5162H0.844238V77.0825H80.0002V73.5162H78.1814C78.7157 72.5284 78.995 71.4237 78.9936 70.3016V70.3016ZM12.7365 72.261C13.4735 71.616 14.4292 71.9914 15.1013 72.4212L15.1174 72.4316C15.4768 72.6538 15.8996 72.7492 16.3196 72.7019C17.1304 72.6524 17.8047 72.0611 17.96 71.2635C18.1314 70.3824 18.4957 69.5493 19.0264 68.8249C20.4363 66.894 22.8331 65.9481 25.1819 66.3981C27.53 66.8473 29.4086 68.611 30.0056 70.9264C30.2333 71.8159 31.0991 72.3863 32.0061 72.2456C32.2791 72.2038 32.557 72.1969 32.8322 72.2247C33.7349 72.3146 34.5575 72.7848 35.0932 73.5169H12.0915C12.1521 73.0355 12.3806 72.5904 12.7365 72.261ZM63.7258 73.5162C60.5154 73.5148 57.8413 71.0545 57.5738 67.8553C57.3064 64.656 59.5346 61.7848 62.6998 61.2505C65.8656 60.7156 68.9131 62.6959 69.7106 65.8053C69.9384 66.6948 70.8042 67.2667 71.7118 67.126C71.8776 67.1002 72.0455 67.0876 72.2141 67.0876C73.9889 67.0876 75.428 68.5267 75.428 70.3023C75.428 72.0771 73.9889 73.5162 72.2141 73.5162H63.7258Z" fill="#DD911F"/>
</g>
<defs>
<clipPath id="clip0">
<rect width="80" height="80" fill="white"/>
</clipPath>
</defs>
</svg>
