<svg width="80" height="80" viewBox="0 0 80 80" fill="none" xmlns="http://www.w3.org/2000/svg">
<path d="M41.6323 44.847L29.375 37.4942V5.62502H41.0938V9.21877H42.9688V4.68752C42.9596 4.43484 42.8524 4.19566 42.6699 4.02066C42.4874 3.84566 42.2439 3.74859 41.9911 3.75002H28.3973C28.2763 3.75083 28.1567 3.77594 28.0456 3.82385C27.9344 3.87176 27.834 3.9415 27.7503 4.02893C27.6667 4.11636 27.6014 4.2197 27.5584 4.33283C27.5154 4.44596 27.4955 4.56657 27.5 4.68752V36.375L24.6142 34.6641C24.4655 34.579 24.2975 34.5334 24.1261 34.5316C23.9548 34.5297 23.7858 34.5717 23.6353 34.6536C23.4869 34.7336 23.3618 34.8508 23.2723 34.9937C23.1829 35.1366 23.1321 35.3003 23.125 35.4688V75.9375H25V37.1203L40.1562 46.1842V75.9375H42.0312V45.652C42.0423 45.4945 42.0112 45.3369 41.9411 45.1954C41.871 45.0539 41.7644 44.9336 41.6323 44.847V44.847Z" fill="#DD911F"/>
<path d="M57.5758 15H36.1695C35.9077 15.0089 35.6586 15.1153 35.4711 15.2984C35.2836 15.4814 35.1713 15.7279 35.1562 15.9895V31.0938H37.0312V16.875H56.5625V48.9062H58.4375V15.9895C58.4375 15.4719 58.0937 15 57.5758 15Z" fill="#DD911F"/>
<path d="M74.0625 75H72.1875V37.4478C72.195 37.3316 72.1781 37.2152 72.1377 37.1059C72.0974 36.9967 72.0346 36.8971 71.9534 36.8137C71.8722 36.7302 71.7743 36.6648 71.6662 36.6215C71.5581 36.5783 71.4421 36.5582 71.3258 36.5625H58.4375V38.4375H70.3125V75H61.5625V47.0833C61.57 46.9217 61.534 46.7611 61.4583 46.6182C61.3825 46.4753 61.2698 46.3553 61.1319 46.2708C60.9859 46.1885 60.8212 46.1452 60.6537 46.1452C60.4861 46.1452 60.3214 46.1885 60.1755 46.2708L50 52.1308V23.8027C50.0088 23.641 49.9734 23.48 49.8976 23.3369C49.8218 23.1939 49.7085 23.0742 49.5698 22.9906C49.4311 22.9071 49.2722 22.8629 49.1103 22.8629C48.9484 22.8628 48.7896 22.9068 48.6508 22.9902L32.3723 32.3652C32.2262 32.446 32.1036 32.5634 32.0164 32.7058C31.9293 32.8482 31.8805 33.0108 31.875 33.1777V38.9063L33.75 40.1563V33.7188L48.125 25.4255V53.2125L43.9062 55.6463C43.7636 55.7286 43.6452 55.8471 43.563 55.9897C43.4807 56.1323 43.4374 56.2941 43.4375 56.4588V75H10.7812V28.5938H27.5V26.7188H9.84375C9.32609 26.7188 8.90625 27.0605 8.90625 27.5782V75H5.78125C5.53261 75 5.29415 75.0988 5.11834 75.2746C4.94252 75.4504 4.84375 75.6889 4.84375 75.9375C4.84375 76.1862 4.94252 76.4246 5.11834 76.6005C5.29415 76.7763 5.53261 76.875 5.78125 76.875H74.0625C74.3111 76.875 74.5496 76.7763 74.7254 76.6005C74.9012 76.4246 75 76.1862 75 75.9375C75 75.6889 74.9012 75.4504 74.7254 75.2746C74.5496 75.0988 74.3111 75 74.0625 75ZM45.3125 57L59.6875 48.7068V75H45.3125V57Z" fill="#347AF4"/>
<path d="M55.4687 15.1563V4.06255C55.4774 3.91147 55.4473 3.76068 55.3814 3.62448C55.3154 3.48829 55.2157 3.3712 55.0918 3.28434C54.9679 3.19747 54.8238 3.1437 54.6733 3.12813C54.5228 3.11256 54.3708 3.1357 54.2317 3.19536L39.0209 9.44536C38.8488 9.5159 38.7014 9.63597 38.5975 9.79036C38.4937 9.94474 38.438 10.1265 38.4375 10.3126V15.0001H40.3125V10.9408L53.5937 5.46146V15.1563H55.4687Z" fill="#347AF4"/>
</svg>
