<svg width="80" height="80" viewBox="0 0 80 80" fill="none" xmlns="http://www.w3.org/2000/svg">
<path d="M8.49622 37.1875H16.3087C16.5988 37.1875 16.877 37.0723 17.0821 36.8671C17.2872 36.662 17.4025 36.3838 17.4025 36.0938C17.4025 35.8037 17.2872 35.5255 17.0821 35.3204C16.877 35.1152 16.5988 35 16.3087 35H8.49622C8.20614 35 7.92794 35.1152 7.72282 35.3204C7.5177 35.5255 7.40247 35.8037 7.40247 36.0938C7.40247 36.3838 7.5177 36.662 7.72282 36.8671C7.92794 37.0723 8.20614 37.1875 8.49622 37.1875V37.1875Z" fill="#DD911F"/>
<path d="M16.3087 45C16.5988 45 16.877 44.8848 17.0821 44.6796C17.2872 44.4745 17.4025 44.1963 17.4025 43.9062C17.4025 43.6162 17.2872 43.338 17.0821 43.1329C16.877 42.9277 16.5988 42.8125 16.3087 42.8125H5.37122C5.08114 42.8125 4.80294 42.9277 4.59782 43.1329C4.3927 43.338 4.27747 43.6162 4.27747 43.9062C4.27747 44.1963 4.3927 44.4745 4.59782 44.6796C4.80294 44.8848 5.08114 45 5.37122 45H16.3087Z" fill="#DD911F"/>
<path d="M11.6212 29.375H16.3087C16.5988 29.375 16.877 29.2598 17.0821 29.0546C17.2872 28.8495 17.4025 28.5713 17.4025 28.2812C17.4025 27.9912 17.2872 27.713 17.0821 27.5079C16.877 27.3027 16.5988 27.1875 16.3087 27.1875H11.6212C11.3311 27.1875 11.0529 27.3027 10.8478 27.5079C10.6427 27.713 10.5275 27.9912 10.5275 28.2812C10.5275 28.5713 10.6427 28.8495 10.8478 29.0546C11.0529 29.2598 11.3311 29.375 11.6212 29.375Z" fill="#DD911F"/>
<path d="M75.7188 37.3826C75.7175 37.3661 75.7158 37.3497 75.7138 37.3333C75.7114 37.3144 75.7085 37.2958 75.7052 37.277C75.7019 37.2583 75.6989 37.2431 75.695 37.2264C75.6911 37.2097 75.6864 37.1911 75.6814 37.1736C75.6764 37.1561 75.6719 37.1398 75.6658 37.1233C75.6597 37.1067 75.6538 37.0892 75.6472 37.0723C75.6407 37.0554 75.6344 37.0398 75.6272 37.0239C75.62 37.0079 75.6116 36.9912 75.6036 36.975C75.5957 36.9587 75.588 36.9437 75.5788 36.9281C75.5696 36.9125 75.5607 36.8969 75.5511 36.8826C75.5416 36.8684 75.531 36.8514 75.5199 36.8367C75.5088 36.822 75.4999 36.8094 75.4894 36.7959C75.4789 36.7825 75.4646 36.7647 75.4516 36.7503C75.4457 36.7436 75.4405 36.7362 75.4343 36.7295L67.3847 27.9437C66.99 27.5116 66.5101 27.1659 65.9752 26.9282C65.4404 26.6905 64.8622 26.566 64.2769 26.5625H52.8125V23.0672C52.8126 22.5172 52.7036 21.9726 52.4918 21.465C52.2801 20.9574 51.9698 20.4969 51.579 20.1099C51.1881 19.723 50.7244 19.4174 50.2147 19.2108C49.705 19.0042 49.1594 18.9006 48.6094 18.9062H23.0663C22.5186 18.9016 21.9755 19.006 21.4686 19.2135C20.9617 19.4209 20.5012 19.7273 20.114 20.1146C19.7267 20.5019 19.4205 20.9625 19.2132 21.4694C19.0058 21.9763 18.9015 22.5195 18.9063 23.0672V51.464C18.9015 52.0117 19.0058 52.5549 19.2132 53.0618C19.4205 53.5687 19.7267 54.0293 20.114 54.4166C20.5012 54.8039 20.9617 55.1103 21.4686 55.3177C21.9755 55.5252 22.5186 55.6297 23.0663 55.625H26.9725C27.2626 55.625 27.5408 55.5098 27.7459 55.3046C27.9511 55.0995 28.0663 54.8213 28.0663 54.5312C28.0663 54.2412 27.9511 53.963 27.7459 53.7578C27.5408 53.5527 27.2626 53.4375 26.9725 53.4375H23.0663C22.8058 53.4425 22.5469 53.395 22.3053 53.2976C22.0636 53.2002 21.8441 53.055 21.6599 52.8707C21.4757 52.6864 21.3306 52.4668 21.2334 52.2251C21.1361 51.9834 21.0886 51.7245 21.0938 51.464V23.0672C21.0886 22.8067 21.1361 22.5478 21.2334 22.3061C21.3306 22.0644 21.4757 21.8448 21.6599 21.6605C21.8441 21.4762 22.0636 21.331 22.3053 21.2337C22.5469 21.1363 22.8058 21.0887 23.0663 21.0937H48.6094C48.8722 21.0878 49.1335 21.1345 49.3779 21.231C49.6224 21.3276 49.8451 21.4721 50.0329 21.6559C50.2207 21.8398 50.3698 22.0594 50.4715 22.3017C50.5732 22.5441 50.6254 22.8043 50.625 23.0672V53.4375H37.91C37.62 53.4375 37.3418 53.5527 37.1366 53.7578C36.9315 53.963 36.8163 54.2412 36.8163 54.5312C36.8163 54.8213 36.9315 55.0995 37.1366 55.3046C37.3418 55.5098 37.62 55.625 37.91 55.625H56.66C56.9501 55.625 57.2283 55.5098 57.4334 55.3046C57.6386 55.0995 57.7538 54.8213 57.7538 54.5312C57.7538 54.2412 57.6386 53.963 57.4334 53.7578C57.2283 53.5527 56.9501 53.4375 56.66 53.4375H52.8125V38.5937H73.5938V51.464C73.5938 52.584 72.6238 53.4375 71.5038 53.4375H67.5975C67.3075 53.4375 67.0293 53.5527 66.8241 53.7578C66.619 53.963 66.5038 54.2412 66.5038 54.5312C66.5038 54.8213 66.619 55.0995 66.8241 55.3046C67.0293 55.5098 67.3075 55.625 67.5975 55.625H71.5038C73.83 55.625 75.7813 53.7901 75.7813 51.464V37.4687C75.7813 37.4598 75.7508 37.4511 75.75 37.4422C75.75 37.4226 75.7197 37.4026 75.7188 37.3826ZM52.8125 28.75H64.2769C64.5602 28.756 64.8393 28.8202 65.0967 28.9386C65.3541 29.0571 65.5844 29.2272 65.7733 29.4384L72.1407 36.4062H52.8125V28.75Z" fill="#347AF4"/>
<path d="M25.8788 54.5891C25.8788 55.887 26.2637 57.1558 26.9848 58.235C27.7059 59.3142 28.7308 60.1553 29.9299 60.652C31.1291 61.1487 32.4486 61.2787 33.7216 61.0255C34.9946 60.7723 36.1639 60.1473 37.0817 59.2295C37.9995 58.3117 38.6245 57.1424 38.8777 55.8694C39.1309 54.5964 39.0009 53.2769 38.5042 52.0777C38.0075 50.8786 37.1664 49.8537 36.0872 49.1326C35.008 48.4115 33.7392 48.0266 32.4413 48.0266C30.7014 48.0286 29.0334 48.7206 27.8031 49.9509C26.5728 51.1812 25.8808 52.8492 25.8788 54.5891V54.5891ZM36.8163 54.5891C36.8163 55.4544 36.5597 56.3002 36.079 57.0197C35.5982 57.7392 34.915 58.2999 34.1155 58.6311C33.3161 58.9622 32.4364 59.0488 31.5878 58.88C30.7391 58.7112 29.9595 58.2945 29.3477 57.6827C28.7358 57.0708 28.3192 56.2913 28.1504 55.4426C27.9815 54.5939 28.0682 53.7143 28.3993 52.9148C28.7304 52.1154 29.2912 51.4321 30.0107 50.9514C30.7301 50.4707 31.576 50.2141 32.4413 50.2141C33.6012 50.2154 34.7132 50.6768 35.5334 51.4969C36.3536 52.3171 36.815 53.4292 36.8163 54.5891V54.5891Z" fill="#DD911F"/>
<path d="M55.5662 54.5891C55.5662 55.887 55.951 57.1558 56.6721 58.235C57.3932 59.3142 58.4182 60.1553 59.6173 60.652C60.8164 61.1487 62.1359 61.2787 63.4089 61.0255C64.6819 60.7723 65.8513 60.1473 66.7691 59.2295C67.6868 58.3117 68.3119 57.1424 68.5651 55.8694C68.8183 54.5964 68.6883 53.2769 68.1916 52.0777C67.6949 50.8786 66.8538 49.8537 65.7746 49.1326C64.6954 48.4115 63.4266 48.0266 62.1287 48.0266C60.3888 48.0286 58.7207 48.7206 57.4905 49.9509C56.2602 51.1812 55.5681 52.8492 55.5662 54.5891ZM66.5037 54.5891C66.5037 55.4544 66.2471 56.3002 65.7664 57.0197C65.2856 57.7392 64.6023 58.2999 63.8029 58.6311C63.0035 58.9622 62.1238 59.0488 61.2751 58.88C60.4265 58.7112 59.6469 58.2945 59.0351 57.6827C58.4232 57.0708 58.0065 56.2913 57.8377 55.4426C57.6689 54.5939 57.7556 53.7143 58.0867 52.9148C58.4178 52.1154 58.9786 51.4321 59.698 50.9514C60.4175 50.4707 61.2634 50.2141 62.1287 50.2141C63.2886 50.2154 64.4006 50.6768 65.2208 51.4969C66.041 52.3171 66.5023 53.4292 66.5037 54.5891Z" fill="#DD911F"/>
</svg>
