<svg width="80" height="80" viewBox="0 0 80 80" fill="none" xmlns="http://www.w3.org/2000/svg">
<path d="M2.07978 49.9011L14.9587 56.3594V70.5302H10.5568C10.3082 70.5302 10.0697 70.6289 9.89389 70.8047C9.71808 70.9806 9.61931 71.219 9.61931 71.4677C9.61931 71.7163 9.71808 71.9548 9.89389 72.1306C10.0697 72.3064 10.3082 72.4052 10.5568 72.4052H21.3327C21.5814 72.4052 21.8198 72.3064 21.9957 72.1306C22.1715 71.9548 22.2702 71.7163 22.2702 71.4677C22.2702 71.219 22.1715 70.9806 21.9957 70.8047C21.8198 70.6289 21.5814 70.5302 21.3327 70.5302H16.8337V57.2995L29.1687 63.4844C29.2787 63.5396 29.3985 63.5727 29.5214 63.5816C29.6442 63.5905 29.7675 63.5751 29.8844 63.5363C30.0012 63.4975 30.1093 63.436 30.2023 63.3554C30.2954 63.2748 30.3717 63.1767 30.4268 63.0666L32.6348 58.6636C32.69 58.5535 32.7229 58.4337 32.7318 58.3109C32.7407 58.1881 32.7253 58.0648 32.6865 57.9479C32.6477 57.8311 32.5862 57.723 32.5057 57.6299C32.4251 57.5368 32.327 57.4605 32.217 57.4053L5.12806 43.822C4.90581 43.7106 4.64841 43.6921 4.41247 43.7704C4.17654 43.8488 3.98138 44.0176 3.86993 44.2398L1.66196 48.6428C1.60678 48.7529 1.57381 48.8727 1.56494 48.9955C1.55607 49.1183 1.57147 49.2416 1.61027 49.3585C1.64907 49.4753 1.7105 49.5834 1.79106 49.6765C1.87161 49.7696 1.96972 49.8459 2.07978 49.9011V49.9011ZM5.12571 45.9183L30.5385 58.6617L29.1718 61.3886L3.75821 48.6453L5.12571 45.9183Z" fill="#347AF4"/>
<path d="M24.9313 49.9011L37.8102 56.3594V70.5302H33.4084C33.1597 70.5302 32.9213 70.6289 32.7455 70.8047C32.5696 70.9806 32.4709 71.219 32.4709 71.4677C32.4709 71.7163 32.5696 71.9548 32.7455 72.1306C32.9213 72.3064 33.1597 72.4052 33.4084 72.4052H44.1843C44.4329 72.4052 44.6714 72.3064 44.8472 72.1306C45.023 71.9548 45.1218 71.7163 45.1218 71.4677C45.1218 71.219 45.023 70.9806 44.8472 70.8047C44.6714 70.6289 44.4329 70.5302 44.1843 70.5302H39.6852V57.2995L52.0202 63.4844C52.1303 63.5396 52.2501 63.5727 52.3729 63.5816C52.4957 63.5905 52.6191 63.5751 52.7359 63.5363C52.8528 63.4975 52.9608 63.436 53.0539 63.3554C53.147 63.2748 53.2232 63.1767 53.2784 63.0666L55.4863 58.6636C55.5415 58.5535 55.5745 58.4337 55.5834 58.3109C55.5922 58.1881 55.5768 58.0648 55.538 57.9479C55.4992 57.8311 55.4378 57.723 55.3572 57.6299C55.2767 57.5368 55.1786 57.4605 55.0685 57.4053L27.9796 43.822C27.7574 43.7106 27.5 43.6921 27.264 43.7704C27.0281 43.8488 26.8329 44.0176 26.7215 44.2398L24.5135 48.6428C24.4583 48.7529 24.4254 48.8727 24.4165 48.9955C24.4076 49.1183 24.423 49.2416 24.4618 49.3585C24.5006 49.4753 24.5621 49.5834 24.6426 49.6765C24.7232 49.7696 24.8213 49.8459 24.9313 49.9011V49.9011ZM27.9773 45.9183L53.3905 58.6617L52.023 61.3886L26.6093 48.6453L27.9773 45.9183Z" fill="#347AF4"/>
<path d="M77.9201 57.4062L50.8312 43.822C50.6089 43.7106 50.3515 43.6921 50.1156 43.7704C49.8797 43.8488 49.6845 44.0176 49.5731 44.2398L47.3651 48.6428C47.3099 48.7529 47.2769 48.8727 47.2681 48.9955C47.2592 49.1183 47.2746 49.2416 47.3134 49.3585C47.3522 49.4753 47.4136 49.5834 47.4942 49.6765C47.5747 49.7696 47.6728 49.8459 47.7829 49.9011L60.6618 56.3594V70.5302H56.2599C56.0113 70.5302 55.7728 70.6289 55.597 70.8047C55.4212 70.9806 55.3224 71.219 55.3224 71.4677C55.3224 71.7163 55.4212 71.9548 55.597 72.1306C55.7728 72.3064 56.0113 72.4052 56.2599 72.4052H67.0359C67.2845 72.4052 67.523 72.3064 67.6988 72.1306C67.8746 71.9548 67.9734 71.7163 67.9734 71.4677C67.9734 71.219 67.8746 70.9806 67.6988 70.8047C67.523 70.6289 67.2845 70.5302 67.0359 70.5302H62.5368V57.2995L74.8718 63.4844C74.9818 63.5396 75.1017 63.5727 75.2245 63.5816C75.3473 63.5905 75.4706 63.5751 75.5875 63.5363C75.7043 63.4975 75.8124 63.436 75.9055 63.3554C75.9986 63.2748 76.0748 63.1767 76.1299 63.0666L78.3379 58.6636C78.3931 58.5535 78.4261 58.4337 78.4349 58.3109C78.4438 58.1881 78.4284 58.0648 78.3896 57.9479C78.3508 57.8311 78.2894 57.723 78.2088 57.6299C78.1282 57.5368 78.0301 57.4605 77.9201 57.4053V57.4062ZM74.8749 61.3886L49.4613 48.6453L50.8288 45.9183L76.2416 58.6617L74.8749 61.3886Z" fill="#347AF4"/>
<path d="M62.8238 28.2188C64.3822 28.2164 65.8977 27.7075 67.1416 26.7687C68.3856 25.8299 69.2906 24.5122 69.7203 23.0142C70.1499 21.5161 70.081 19.919 69.5237 18.4636C68.9665 17.0082 67.9512 15.7734 66.6309 14.9454C65.3106 14.1174 63.7569 13.741 62.2041 13.8731C60.6513 14.0051 59.1835 14.6384 58.022 15.6775C56.8605 16.7166 56.0683 18.1051 55.7648 19.6337C55.4613 21.1623 55.663 22.7481 56.3394 24.1521C56.9232 25.3752 57.8428 26.4071 58.991 27.1272C60.1392 27.8472 61.4685 28.2259 62.8238 28.2188V28.2188ZM60.5074 16.2483C61.4537 15.7924 62.514 15.6274 63.5542 15.7741C64.5943 15.9208 65.5676 16.3726 66.3509 17.0724C67.1343 17.7723 67.6925 18.6887 67.955 19.7058C68.2175 20.7229 68.1726 21.795 67.8258 22.7865C67.479 23.778 66.846 24.6445 66.0068 25.2763C65.1676 25.908 64.1599 26.2768 63.1111 26.3358C62.0623 26.3949 61.0196 26.1416 60.1148 25.6081C59.2099 25.0745 58.4836 24.2847 58.0277 23.3383C57.7208 22.7107 57.5416 22.0283 57.5002 21.3309C57.4589 20.6335 57.5564 19.9348 57.7871 19.2753C58.0177 18.6158 58.3769 18.0086 58.8439 17.4889C59.3108 16.9692 59.8762 16.5473 60.5074 16.2477V16.2483Z" fill="#DD911F"/>
<path d="M57.8786 12.951C57.9883 13.1719 58.1807 13.3407 58.4141 13.4208C58.6474 13.5008 58.9029 13.4857 59.1252 13.3786C59.3474 13.2715 59.5185 13.0811 59.6013 12.8488C59.6842 12.6164 59.6721 12.3607 59.5677 12.1372L58.5302 9.98348C58.4777 9.87109 58.4034 9.77025 58.3116 9.68678C58.2199 9.60331 58.1125 9.53889 57.9956 9.49723C57.8788 9.45557 57.7549 9.43751 57.631 9.4441C57.5071 9.45069 57.3858 9.4818 57.274 9.53561C57.1623 9.58943 57.0623 9.66489 56.9799 9.75762C56.8975 9.85035 56.8344 9.95851 56.7941 10.0758C56.7538 10.1931 56.7372 10.3173 56.7453 10.4411C56.7533 10.5648 56.7858 10.6858 56.841 10.7969L57.8786 12.951Z" fill="#DD911F"/>
<path d="M66.4952 28.6764C66.2713 28.7843 66.0994 28.9768 66.0174 29.2115C65.9353 29.4462 65.9499 29.7038 66.0578 29.9278L67.0952 32.0815C67.1487 32.1924 67.2234 32.2918 67.3152 32.3738C67.4071 32.4558 67.5141 32.5189 67.6303 32.5596C67.7465 32.6002 67.8696 32.6176 67.9925 32.6107C68.1155 32.6038 68.2358 32.5727 68.3467 32.5193C68.4576 32.4658 68.5569 32.3911 68.639 32.2993C68.721 32.2075 68.7841 32.1004 68.8248 31.9842C68.8654 31.868 68.8828 31.7449 68.8759 31.622C68.8689 31.4991 68.8379 31.3787 68.7845 31.2678L67.7468 29.114C67.6934 29.0031 67.6186 28.9038 67.5268 28.8218C67.435 28.7398 67.3279 28.6766 67.2117 28.636C67.0955 28.5953 66.9724 28.578 66.8494 28.5849C66.7265 28.5919 66.6062 28.6229 66.4952 28.6764V28.6764Z" fill="#DD911F"/>
<path d="M71.3018 17.8807C71.4426 17.8805 71.5814 17.8484 71.7081 17.787L73.8618 16.7493C74.0858 16.6414 74.2578 16.4489 74.3398 16.2142C74.4219 15.9795 74.4074 15.7218 74.2995 15.4978C74.1915 15.2738 73.999 15.1018 73.7643 15.0197C73.5296 14.9377 73.2719 14.9522 73.0479 15.0601L70.8942 16.0978C70.7026 16.1899 70.5481 16.3444 70.4559 16.5359C70.3637 16.7273 70.3393 16.9445 70.3866 17.1517C70.434 17.3588 70.5504 17.5438 70.7167 17.6761C70.883 17.8085 71.0893 17.8804 71.3018 17.8801V17.8807Z" fill="#DD911F"/>
<path d="M53.9172 24.2773L51.7634 25.315C51.6525 25.3684 51.5532 25.4432 51.4712 25.535C51.3891 25.6268 51.326 25.7338 51.2854 25.85C51.2447 25.9663 51.2274 26.0893 51.2343 26.2123C51.2412 26.3352 51.2722 26.4555 51.3257 26.5664C51.3791 26.6774 51.4539 26.7767 51.5457 26.8587C51.6375 26.9407 51.7446 27.0039 51.8608 27.0445C51.977 27.0852 52.1001 27.1025 52.223 27.0956C52.3459 27.0887 52.4663 27.0576 52.5772 27.0042L54.7309 25.9665C54.8418 25.9131 54.9412 25.8383 55.0232 25.7465C55.1052 25.6547 55.1683 25.5477 55.209 25.4314C55.2496 25.3152 55.267 25.1922 55.2601 25.0692C55.2532 24.9463 55.2221 24.826 55.1687 24.715C55.1152 24.6041 55.0405 24.5048 54.9487 24.4228C54.8569 24.3408 54.7498 24.2776 54.6336 24.237C54.5174 24.1963 54.3943 24.179 54.2714 24.1859C54.1484 24.1928 54.0281 24.2239 53.9172 24.2773V24.2773Z" fill="#DD911F"/>
<path d="M65.6095 13.0374C65.7257 13.0781 65.8488 13.0956 65.9718 13.0887C66.0947 13.0818 66.2151 13.0508 66.3261 12.9973C66.437 12.9439 66.5363 12.8691 66.6183 12.7772C66.7003 12.6853 66.7634 12.5782 66.8039 12.4619L68.0695 8.84204C68.1102 8.72582 68.1275 8.60273 68.1206 8.4798C68.1137 8.35687 68.0826 8.23651 68.0292 8.12559C67.9757 8.01467 67.901 7.91536 67.8092 7.83333C67.7174 7.7513 67.6103 7.68816 67.4941 7.64751C67.3778 7.60686 67.2547 7.5895 67.1318 7.59642C67.0089 7.60334 66.8885 7.63441 66.7776 7.68785C66.6667 7.74128 66.5674 7.81605 66.4853 7.90786C66.4033 7.99968 66.3402 8.10676 66.2995 8.22298L65.0339 11.8428C64.9932 11.959 64.9759 12.0821 64.9828 12.2051C64.9897 12.328 65.0208 12.4484 65.0743 12.5593C65.1277 12.6702 65.2025 12.7696 65.2943 12.8516C65.3862 12.9336 65.4933 12.9967 65.6095 13.0374V13.0374Z" fill="#DD911F"/>
<path d="M58.822 29.603L57.5564 33.223C57.5157 33.3392 57.4983 33.4623 57.5053 33.5852C57.5122 33.7082 57.5433 33.8285 57.5967 33.9394C57.6501 34.0504 57.7249 34.1497 57.8167 34.2317C57.9085 34.3137 58.0156 34.3769 58.1318 34.4175C58.248 34.4582 58.3711 34.4755 58.4941 34.4686C58.617 34.4617 58.7373 34.4306 58.8483 34.3772C58.9592 34.3237 59.0585 34.249 59.1405 34.1572C59.2226 34.0653 59.2857 33.9583 59.3264 33.8421L60.592 30.2221C60.6731 29.9876 60.658 29.7305 60.5499 29.5072C60.4419 29.2839 60.2497 29.1125 60.0156 29.0306C59.7814 28.9487 59.5243 28.9629 59.3006 29.0702C59.0769 29.1775 58.9048 29.3691 58.8221 29.603H58.822Z" fill="#DD911F"/>
<path d="M75.6222 24.5192L72.0022 23.2536C71.8857 23.2118 71.7621 23.1935 71.6385 23.1997C71.5149 23.2059 71.3938 23.2365 71.2821 23.2898C71.1704 23.3431 71.0703 23.4179 70.9877 23.51C70.905 23.6022 70.8414 23.7097 70.8006 23.8266C70.7597 23.9434 70.7424 24.0671 70.7496 24.1907C70.7569 24.3142 70.7885 24.4351 70.8426 24.5464C70.8968 24.6577 70.9725 24.7571 71.0653 24.839C71.1581 24.9209 71.2662 24.9836 71.3833 25.0235L75.0032 26.2891C75.1195 26.3302 75.2428 26.348 75.366 26.3414C75.4892 26.3347 75.6099 26.3039 75.7211 26.2505C75.8323 26.1971 75.932 26.1223 76.0142 26.0304C76.0965 25.9385 76.1598 25.8312 76.2006 25.7147C76.2413 25.5983 76.2587 25.4749 76.2516 25.3517C76.2446 25.2286 76.2133 25.108 76.1596 24.9969C76.1059 24.8859 76.0307 24.7865 75.9385 24.7045C75.8463 24.6225 75.7388 24.5596 75.6222 24.5192V24.5192Z" fill="#DD911F"/>
<path d="M50.003 17.5456L53.623 18.8113C53.7395 18.8531 53.8631 18.8714 53.9867 18.8652C54.1103 18.859 54.2315 18.8283 54.3432 18.7751C54.4549 18.7218 54.5549 18.647 54.6376 18.5548C54.7202 18.4627 54.7838 18.3551 54.8246 18.2383C54.8655 18.1215 54.8828 17.9977 54.8756 17.8742C54.8684 17.7507 54.8368 17.6298 54.7826 17.5185C54.7284 17.4072 54.6528 17.3078 54.56 17.2259C54.4672 17.144 54.3591 17.0813 54.2419 17.0414L50.6221 15.7758C50.5058 15.7347 50.3825 15.7169 50.2593 15.7235C50.1361 15.7301 50.0154 15.761 49.9041 15.8144C49.7929 15.8677 49.6933 15.9425 49.611 16.0345C49.5287 16.1264 49.4654 16.2337 49.4246 16.3501C49.3839 16.4666 49.3666 16.59 49.3736 16.7131C49.3806 16.8363 49.4119 16.9569 49.4656 17.068C49.5194 17.179 49.5945 17.2784 49.6867 17.3604C49.7789 17.4423 49.8864 17.5053 50.003 17.5456V17.5456Z" fill="#DD911F"/>
</svg>
