<svg width="80" height="80" viewBox="0 0 80 80" fill="none" xmlns="http://www.w3.org/2000/svg">
<path d="M75.4688 27.3438H61.5625V10.7812H64.5312C64.9041 10.7808 65.2615 10.6325 65.5252 10.3689C65.7888 10.1053 65.9371 9.74783 65.9375 9.375V4.375C65.9371 4.00217 65.7888 3.64472 65.5252 3.38109C65.2615 3.11745 64.9041 2.96916 64.5312 2.96875H15.4688C15.0959 2.96916 14.7385 3.11745 14.4748 3.38109C14.2112 3.64472 14.0629 4.00217 14.0625 4.375V9.375C14.0629 9.74783 14.2112 10.1053 14.4748 10.3689C14.7385 10.6325 15.0959 10.7808 15.4688 10.7812H18.4375V19.375H4.53125C4.15842 19.3754 3.80097 19.5237 3.53734 19.7873C3.2737 20.051 3.12541 20.4084 3.125 20.7812V25.9375C3.12541 26.3103 3.2737 26.6678 3.53734 26.9314C3.80097 27.195 4.15842 27.3433 4.53125 27.3438H7.03125V75.9375C7.03125 76.2276 7.14648 76.5058 7.3516 76.7109C7.55672 76.916 7.83492 77.0312 8.125 77.0312H71.875C72.1651 77.0313 72.4433 76.916 72.6484 76.7109C72.8535 76.5058 72.9688 76.2276 72.9688 75.9375V35.3125H75.4688C75.8416 35.3121 76.199 35.1638 76.4627 34.9002C76.7263 34.6365 76.8746 34.2791 76.875 33.9062V28.75C76.8746 28.3772 76.7263 28.0197 76.4627 27.7561C76.199 27.4925 75.8416 27.3442 75.4688 27.3438V27.3438ZM16.25 5.15625H63.75V8.59375H16.25V5.15625ZM5.3125 21.5625H18.4375V25.1562H5.3125V21.5625ZM9.21875 27.3438H18.4375V74.8438H9.21875V27.3438ZM20.625 10.7812H59.375V74.8438H47.0312V57.1875C47.0307 56.7318 46.8495 56.295 46.5272 55.9728C46.205 55.6505 45.7682 55.4693 45.3125 55.4688H34.8438C34.3881 55.4693 33.9512 55.6505 33.629 55.9728C33.3068 56.295 33.1255 56.7318 33.125 57.1875V74.8438H20.625V10.7812ZM44.8438 74.8438H35.3125V57.6562H44.8438V74.8438ZM70.7812 74.8438H61.5625V35.3125H70.7812V74.8438ZM74.6875 33.125H61.5625V29.5312H74.6875V33.125Z" fill="#347AF4"/>
<path d="M28.4375 31.7188H25.1562C24.7006 31.7193 24.2637 31.9005 23.9415 32.2228C23.6193 32.545 23.438 32.9818 23.4375 33.4375V37.3438C23.438 37.7994 23.6193 38.2363 23.9415 38.5585C24.2637 38.8807 24.7006 39.062 25.1562 39.0625H28.4375C28.8932 39.062 29.33 38.8807 29.6522 38.5585C29.9745 38.2363 30.1557 37.7994 30.1562 37.3438V33.4375C30.1557 32.9818 29.9745 32.545 29.6522 32.2228C29.33 31.9005 28.8932 31.7193 28.4375 31.7188ZM27.9688 36.875H25.625V33.9062H27.9688V36.875Z" fill="#347AF4"/>
<path d="M28.4375 44.0625H25.1562C24.7006 44.063 24.2637 44.2443 23.9415 44.5665C23.6193 44.8887 23.438 45.3256 23.4375 45.7812V49.6875C23.438 50.1432 23.6193 50.58 23.9415 50.9022C24.2637 51.2245 24.7006 51.4057 25.1562 51.4062H28.4375C28.8932 51.4057 29.33 51.2245 29.6522 50.9022C29.9745 50.58 30.1557 50.1432 30.1562 49.6875V45.7812C30.1557 45.3256 29.9745 44.8887 29.6522 44.5665C29.33 44.2443 28.8932 44.063 28.4375 44.0625V44.0625ZM27.9688 49.2188H25.625V46.25H27.9688V49.2188Z" fill="#347AF4"/>
<path d="M38.2812 39.0625H41.5625C42.0182 39.062 42.455 38.8807 42.7772 38.5585C43.0995 38.2363 43.2807 37.7994 43.2812 37.3438V33.4375C43.2807 32.9818 43.0995 32.545 42.7772 32.2228C42.455 31.9005 42.0182 31.7193 41.5625 31.7188H38.2812C37.8256 31.7193 37.3887 31.9005 37.0665 32.2228C36.7443 32.545 36.563 32.9818 36.5625 33.4375V37.3438C36.563 37.7994 36.7443 38.2363 37.0665 38.5585C37.3887 38.8807 37.8256 39.062 38.2812 39.0625ZM38.75 33.9062H41.0938V36.875H38.75V33.9062Z" fill="#347AF4"/>
<path d="M38.2812 51.4062H41.5625C42.0182 51.4057 42.455 51.2245 42.7772 50.9022C43.0995 50.58 43.2807 50.1432 43.2812 49.6875V45.7812C43.2807 45.3256 43.0995 44.8887 42.7772 44.5665C42.455 44.2443 42.0182 44.063 41.5625 44.0625H38.2812C37.8256 44.063 37.3887 44.2443 37.0665 44.5665C36.7443 44.8887 36.563 45.3256 36.5625 45.7812V49.6875C36.563 50.1432 36.7443 50.58 37.0665 50.9022C37.3887 51.2245 37.8256 51.4057 38.2812 51.4062ZM38.75 46.25H41.0938V49.2188H38.75V46.25Z" fill="#347AF4"/>
<path d="M51.5625 39.0625H54.8438C55.2994 39.062 55.7363 38.8807 56.0585 38.5585C56.3807 38.2363 56.562 37.7994 56.5625 37.3438V33.4375C56.562 32.9818 56.3807 32.545 56.0585 32.2228C55.7363 31.9005 55.2994 31.7193 54.8438 31.7188H51.5625C51.1068 31.7193 50.67 31.9005 50.3478 32.2228C50.0255 32.545 49.8443 32.9818 49.8438 33.4375V37.3438C49.8443 37.7994 50.0255 38.2363 50.3478 38.5585C50.67 38.8807 51.1068 39.062 51.5625 39.0625V39.0625ZM52.0312 33.9062H54.375V36.875H52.0312V33.9062Z" fill="#347AF4"/>
<path d="M51.5625 51.4062H54.8438C55.2994 51.4057 55.7363 51.2245 56.0585 50.9022C56.3807 50.58 56.562 50.1432 56.5625 49.6875V45.7812C56.562 45.3256 56.3807 44.8887 56.0585 44.5665C55.7363 44.2443 55.2994 44.063 54.8438 44.0625H51.5625C51.1068 44.063 50.67 44.2443 50.3478 44.5665C50.0255 44.8887 49.8443 45.3256 49.8438 45.7812V49.6875C49.8443 50.1432 50.0255 50.58 50.3478 50.9022C50.67 51.2245 51.1068 51.4057 51.5625 51.4062V51.4062ZM52.0312 46.25H54.375V49.2188H52.0312V46.25Z" fill="#347AF4"/>
<path d="M64.2188 46.4062H67.5C67.9557 46.4057 68.3925 46.2245 68.7147 45.9022C69.037 45.58 69.2182 45.1432 69.2188 44.6875V40.7812C69.2182 40.3256 69.037 39.8887 68.7147 39.5665C68.3925 39.2443 67.9557 39.063 67.5 39.0625H64.2188C63.7631 39.063 63.3262 39.2443 63.004 39.5665C62.6818 39.8887 62.5005 40.3256 62.5 40.7812V44.6875C62.5005 45.1432 62.6818 45.58 63.004 45.9022C63.3262 46.2245 63.7631 46.4057 64.2188 46.4062V46.4062ZM64.6875 41.25H67.0312V44.2188H64.6875V41.25Z" fill="#347AF4"/>
<path d="M15.4688 39.0625H12.1875C11.7318 39.063 11.295 39.2443 10.9728 39.5665C10.6505 39.8887 10.4693 40.3256 10.4688 40.7812V44.6875C10.4693 45.1432 10.6505 45.58 10.9728 45.9022C11.295 46.2245 11.7318 46.4057 12.1875 46.4062H15.4688C15.9244 46.4057 16.3613 46.2245 16.6835 45.9022C17.0057 45.58 17.187 45.1432 17.1875 44.6875V40.7812C17.187 40.3256 17.0057 39.8887 16.6835 39.5665C16.3613 39.2443 15.9244 39.063 15.4688 39.0625V39.0625ZM15 44.2188H12.6562V41.25H15V44.2188Z" fill="#347AF4"/>
<path d="M46.4062 17.5H43.2812V14.375C43.2807 13.9193 43.0995 13.4825 42.7772 13.1603C42.455 12.838 42.0182 12.6568 41.5625 12.6562H38.9062C38.4506 12.6568 38.0137 12.838 37.6915 13.1603C37.3693 13.4825 37.188 13.9193 37.1875 14.375V17.5H33.75C33.2943 17.5005 32.8575 17.6818 32.5353 18.004C32.213 18.3262 32.0318 18.7631 32.0312 19.2188V21.7188C32.0318 22.1744 32.213 22.6113 32.5353 22.9335C32.8575 23.2557 33.2943 23.437 33.75 23.4375H37.1875V26.7188C37.188 27.1744 37.3693 27.6113 37.6915 27.9335C38.0137 28.2557 38.4506 28.437 38.9062 28.4375H41.5625C42.0182 28.437 42.455 28.2557 42.7772 27.9335C43.0995 27.6113 43.2807 27.1744 43.2812 26.7188V23.4375H46.4062C46.8619 23.437 47.2988 23.2557 47.621 22.9335C47.9432 22.6113 48.1245 22.1744 48.125 21.7188V19.2188C48.1245 18.7631 47.9432 18.3262 47.621 18.004C47.2988 17.6818 46.8619 17.5005 46.4062 17.5ZM45.9375 21.25H42.8125C42.3568 21.2505 41.92 21.4318 41.5978 21.754C41.2755 22.0762 41.0943 22.5131 41.0938 22.9688V26.25H39.375V22.9688C39.3745 22.5131 39.1932 22.0762 38.871 21.754C38.5488 21.4318 38.1119 21.2505 37.6562 21.25H34.2188V19.6875H37.6562C38.1119 19.687 38.5488 19.5057 38.871 19.1835C39.1932 18.8613 39.3745 18.4244 39.375 17.9688V14.8438H41.0938V17.9688C41.0943 18.4244 41.2755 18.8613 41.5978 19.1835C41.92 19.5057 42.3568 19.687 42.8125 19.6875H45.9375V21.25Z" fill="#DD911F"/>
</svg>
