<svg width="537" height="520" viewBox="0 0 537 520" fill="none" xmlns="http://www.w3.org/2000/svg">
<mask id="mask0" mask-type="alpha" maskUnits="userSpaceOnUse" x="0" y="0" width="537" height="520">
<rect width="537" height="520" fill="#000F28"/>
</mask>
<g mask="url(#mask0)">
<g opacity="0.2">
<path opacity="0.4" d="M618.75 270.593C573.062 244.208 499.274 244.208 453.866 270.593C453.666 270.713 453.426 270.833 453.226 270.952C424.007 288.183 414.054 312.289 423.327 334.236C428.244 345.91 438.597 356.983 454.386 366.098C500.074 392.483 573.902 392.483 619.27 366.098C664.678 339.713 664.438 296.978 618.75 270.593Z" fill="white"/>
<path opacity="0.4" d="M640.015 258.24C582.616 225.099 489.521 225.099 432.481 258.24C430.962 259.119 429.443 260.039 428.004 260.958L430.922 262.118C432.241 261.278 433.56 260.479 434.959 259.679C490.64 227.337 581.537 227.337 637.577 259.679C693.618 292.061 693.938 344.711 638.257 377.052C582.576 409.434 491.68 409.434 435.639 377.052C415.093 365.179 402.023 350.587 396.466 335.236L392.949 335.356C398.585 351.187 411.976 366.258 433.161 378.491C490.56 411.633 583.695 411.633 640.735 378.491C697.735 345.31 697.455 291.381 640.015 258.24Z" fill="white"/>
<path opacity="0.4" d="M660.761 246.167C591.849 206.389 480.088 206.389 411.616 246.167C408.818 247.806 406.1 249.485 403.541 251.204L411.296 254.282C413.534 252.843 415.853 251.404 418.251 250.004C483.086 212.306 588.931 212.306 654.206 250.004C719.48 287.703 719.839 349.028 655.005 386.687C590.17 424.385 484.285 424.385 419.051 386.687C394.268 372.375 378.839 354.665 372.803 336.075L363.41 336.435C369.645 356.264 385.994 375.213 412.455 390.484C481.367 430.262 593.128 430.262 661.6 390.484C730.032 350.707 729.673 285.984 660.761 246.167Z" fill="white"/>
<path opacity="0.4" d="M703.171 221.541C610.716 168.171 460.781 168.171 368.926 221.541C277.07 274.95 277.55 361.781 370.005 415.191C408.898 437.658 457.983 450.65 508.628 454.208L508.148 442.615C462.74 439.097 418.891 427.224 383.955 407.075C299.255 358.183 298.815 278.588 382.956 229.696C467.097 180.804 604.48 180.804 689.141 229.696C744.022 261.398 763.529 305.933 747.62 346.67L766.406 350.587C784.794 305.733 763.648 256.441 703.171 221.541Z" fill="white"/>
<path opacity="0.4" d="M354.816 423.985C253.926 365.739 253.367 270.952 353.616 212.666C453.866 154.419 617.471 154.419 718.4 212.666C819.289 270.912 819.809 365.699 719.599 423.985C619.31 482.272 455.705 482.272 354.816 423.985ZM721.678 210.787C671.913 182.043 605.879 166.212 535.769 166.212C465.658 166.212 399.784 182.043 350.339 210.787C300.893 239.53 273.752 277.709 273.992 318.365C274.232 358.982 301.733 397.201 351.498 425.944C401.263 454.688 467.297 470.479 537.447 470.479C607.558 470.479 673.432 454.648 722.877 425.944C772.322 397.241 799.423 359.022 799.184 318.365C798.944 277.709 771.403 239.53 721.678 210.787Z" fill="white"/>
<path opacity="0.4" d="M870.973 250.004L862.939 251.403C898.714 309.69 886.722 375.653 826.884 428.662L833.6 431.421C871.413 398.16 891.559 359.182 891.319 318.365C891.199 294.699 884.244 271.672 870.973 250.004ZM774.041 166.092C708.487 131.671 624.386 112.842 535.449 112.842C440.675 112.842 351.698 134.23 284.945 173.048C218.152 211.866 181.537 263.476 181.857 318.365C182.177 373.254 219.351 424.865 286.584 463.683C353.816 502.5 443.034 523.888 537.767 523.888C594.527 523.888 649.169 516.213 698.215 501.741L694.137 497.543C564.309 535.602 401.143 523.209 292.3 460.364C156.715 382.089 155.995 254.681 290.701 176.406C421.289 100.489 632.021 98.1705 768.285 169.49L774.041 166.092Z" fill="white"/>
<path opacity="0.4" d="M990.857 227.199L979.943 229.098C1028.54 308.223 1012.25 397.768 930.962 469.73L940.085 473.474C991.455 428.322 1018.82 375.409 1018.5 320C1018.33 287.872 1008.89 256.613 990.857 227.199ZM859.174 113.287C770.118 66.561 655.866 41 535.043 41C406.292 41 285.415 70.0342 194.73 122.73C103.991 175.426 54.2502 245.488 54.6846 320C55.1191 394.512 105.62 464.574 196.957 517.27C288.293 569.966 409.496 599 538.193 599C615.302 599 689.534 588.58 756.162 568.935L750.624 563.236C574.25 614.901 352.587 598.077 204.722 512.766C20.5284 406.506 19.551 233.549 202.55 127.289C379.956 24.2307 666.238 21.0831 851.354 117.9L859.174 113.287Z" fill="white"/>
<path opacity="0.4" d="M823.527 151.58C784.554 129.073 739.106 111.643 688.541 99.7697C639.696 88.2962 588.132 82.4995 535.249 82.4995C482.366 82.4995 430.842 88.2962 382.157 99.7697C331.712 111.643 286.504 129.073 247.771 151.58C209.038 174.087 179.099 200.352 158.753 229.576C139.127 257.84 129.254 287.703 129.454 318.325C129.614 348.948 139.807 378.811 159.753 407.075C161.032 408.914 162.391 410.713 163.75 412.552L171.624 411.033C107.39 326.401 134.61 224.019 253.567 154.858C408.618 64.7496 661.72 64.7496 817.811 154.858C973.861 244.967 974.7 391.604 819.649 481.712C723.157 537.801 588.731 558.988 463.3 545.276L461.301 549.994C486.403 552.752 512.025 554.151 537.927 554.151C590.81 554.151 642.334 548.355 691.06 536.881C741.504 525.008 786.712 507.578 825.445 485.07C864.178 462.563 894.117 436.298 914.423 407.035C934.049 378.771 943.882 348.908 943.722 318.285C943.562 287.663 933.369 257.8 913.423 229.536C892.758 200.352 862.539 174.087 823.527 151.58Z" fill="white"/>
<path opacity="0.4" d="M849.708 136.349C807.178 111.803 757.613 92.7739 702.412 79.8213C671.633 72.5854 639.855 67.4283 607.358 64.3501L607.958 65.9092C695.856 74.3444 780.237 98.1309 848.069 137.309C1020.95 237.132 1021.87 399.559 850.108 499.383C678.348 599.206 397.985 599.206 225.107 499.383C52.2281 399.559 51.3487 237.132 223.068 137.309C243.654 125.315 265.838 114.801 289.222 105.687L288.662 104.207C264.639 113.522 242.175 124.276 221.429 136.349C179.139 160.935 146.482 189.559 124.297 221.501C102.912 252.323 92.16 284.945 92.3199 318.366C92.5198 351.787 103.632 384.368 125.417 415.23C147.961 447.172 180.938 475.796 223.468 500.382C266.038 524.968 315.563 543.957 370.764 556.91C424.047 569.423 480.327 575.739 538.047 575.739C595.726 575.739 651.967 569.383 705.13 556.91C760.171 543.957 809.496 524.928 851.787 500.382C894.037 475.836 926.734 447.172 948.878 415.23C970.303 384.408 981.056 351.787 980.856 318.366C980.656 284.945 969.544 252.363 947.759 221.501C925.255 189.559 892.238 160.935 849.708 136.349Z" fill="white"/>
</g>
</g>
</svg>
