<svg width="80" height="80" viewBox="0 0 80 80" fill="none" xmlns="http://www.w3.org/2000/svg">
<path d="M40 77.027C46.7519 77.027 53.0531 73.3501 56.4448 67.4315C59.5583 61.9984 59.5917 55.6395 56.534 50.4218C56.5196 50.3971 56.5039 50.3728 56.4872 50.3492L40.7615 28.439C40.6748 28.3182 40.5605 28.2198 40.4282 28.1519C40.2959 28.084 40.1493 28.0485 40.0006 28.0484C39.8519 28.0485 39.7053 28.084 39.573 28.1519C39.4407 28.2198 39.3264 28.3182 39.2397 28.439L23.5137 50.2886C23.4962 50.3129 23.4798 50.3381 23.4648 50.364C20.4023 55.6178 20.4426 62.0061 23.5722 67.4528C26.9655 73.3584 33.2601 77.027 40 77.027V77.027ZM25.0625 51.3467L39.9989 30.5922L54.9375 51.4062C57.6697 56.0979 57.6267 61.5965 54.8175 66.4989C53.325 69.1153 51.1697 71.2926 48.5686 72.8116C45.9675 74.3306 43.0121 75.1378 40 75.152C33.9295 75.152 28.2578 71.8439 25.1981 66.5187C22.373 61.6018 22.3241 56.0747 25.0625 51.3467V51.3467Z" fill="#347AF4"/>
<path d="M34.8594 61.1217H38.0675L37.5783 69.4917C37.5652 69.7137 37.6314 69.9331 37.7651 70.1107C37.8989 70.2884 38.0914 70.4127 38.3083 70.4615C38.5252 70.5103 38.7525 70.4805 38.9494 70.3772C39.1463 70.274 39.3002 70.1041 39.3834 69.898L45.4977 54.7761C45.5552 54.6338 45.5769 54.4795 45.5609 54.3269C45.5449 54.1742 45.4916 54.0278 45.4058 53.9006C45.32 53.7733 45.2043 53.6691 45.0687 53.597C44.9332 53.5249 44.7821 53.4872 44.6286 53.4872H42.4128L45.1913 45.9117C45.2432 45.77 45.2602 45.6179 45.2407 45.4683C45.2213 45.3187 45.166 45.1759 45.0796 45.0522C44.9932 44.9285 44.8782 44.8275 44.7444 44.7578C44.6106 44.688 44.462 44.6516 44.3111 44.6516H38.1758C37.9633 44.6516 37.7571 44.7238 37.591 44.8564C37.4249 44.989 37.3088 45.174 37.2617 45.3812L33.9458 59.9766C33.9146 60.1138 33.9147 60.2563 33.9462 60.3935C33.9776 60.5307 34.0395 60.6591 34.1273 60.7691C34.2151 60.8791 34.3266 60.9679 34.4534 61.029C34.5803 61.09 34.7192 61.1217 34.86 61.1217H34.8594ZM38.9236 46.5264H42.9688L40.1906 54.1017C40.1387 54.2434 40.1217 54.3955 40.1411 54.5452C40.1605 54.6948 40.2158 54.8376 40.3022 54.9613C40.3886 55.085 40.5036 55.1861 40.6374 55.2558C40.7712 55.3256 40.9199 55.362 41.0708 55.362H43.2391L39.7834 63.9078L39.998 60.2389C40.0054 60.1114 39.9867 59.9837 39.9431 59.8637C39.8994 59.7437 39.8317 59.6338 39.744 59.5409C39.6564 59.448 39.5507 59.374 39.4334 59.3234C39.3161 59.2728 39.1897 59.2467 39.062 59.2467H36.0342L38.9236 46.5264Z" fill="#347AF4"/>
<path d="M47.5366 15.5915H21V17.2833H47.532C48.4556 17.286 49.3405 17.6554 49.9921 18.3104C51.0201 19.3407 51.0201 21.0087 49.9921 22.0387C49.2341 22.7954 48.0065 22.7954 47.2485 22.0387C46.7092 21.4984 46.7092 20.6238 47.2485 20.0832L46.0523 18.887C44.8535 20.0884 44.8535 22.0334 46.0523 23.2349C47.4715 24.6508 49.7691 24.6508 51.1883 23.2349C52.8759 21.5434 52.8759 18.8053 51.1883 17.1138C50.2211 16.1423 48.9076 15.5948 47.5366 15.5915V15.5915Z" fill="#DD911F"/>
<path d="M34.2751 20.6746H26.0756V22.3665H34.2701C34.9578 22.3685 35.616 22.6434 36.1008 23.1308C36.8489 23.8802 36.8489 25.0943 36.1008 25.844C35.5674 26.377 34.703 26.377 34.1697 25.844C33.8098 25.4832 33.8098 24.899 34.1697 24.5381L32.9732 23.3416C31.9534 24.3637 31.9534 26.0182 32.9732 27.0402C34.1674 28.2341 36.1031 28.2341 37.2973 27.0402C38.705 25.6292 38.705 23.3452 37.2973 21.9343C36.4966 21.1303 35.4095 20.6769 34.2751 20.6746V20.6746Z" fill="#DD911F"/>
<path d="M46.2112 6.00013C47.6189 4.58915 47.6189 2.30482 46.2112 0.89417C45.0163 -0.298057 43.0823 -0.298057 41.8874 0.89417C40.8677 1.91589 40.8677 3.57073 41.8874 4.59245L43.0836 3.39626C42.7237 3.03542 42.7237 2.4512 43.0836 2.09036C43.6173 1.55802 44.4814 1.55802 45.015 2.09036C45.7631 2.84013 45.7631 4.05384 45.015 4.8036C44.5316 5.29001 43.875 5.56494 43.1893 5.56791H29.7976V7.25976H43.194C44.327 7.25613 45.4122 6.80309 46.2112 6.00013Z" fill="#DD911F"/>
<path d="M52.1581 4.06805C50.8803 5.34619 50.8803 7.41805 52.1581 8.69619L53.3546 7.49967C52.7374 6.88241 52.7374 5.88184 53.3546 5.26457C54.2091 4.41204 55.593 4.41204 56.4475 5.26457C57.5962 6.41583 57.5962 8.27918 56.4475 9.4301C55.7259 10.1561 54.7451 10.5662 53.7214 10.5704H25.0928V12.2623H53.726C55.1972 12.2577 56.6062 11.6692 57.6441 10.6266C59.4519 8.81449 59.4519 5.88051 57.6441 4.06838C56.128 2.55596 53.6742 2.55563 52.1581 4.06805Z" fill="#DD911F"/>
</svg>
