<svg width="80" height="80" viewBox="0 0 80 80" fill="none" xmlns="http://www.w3.org/2000/svg">
<path d="M36.4786 15.7528H65.9736V17.6278H36.4786V15.7528Z" fill="#347AF4"/>
<path d="M27.7177 21.5934H65.9736V23.4684H27.7177V21.5934Z" fill="#347AF4"/>
<path d="M27.7177 27.4341H65.9736V29.3091H27.7177V27.4341Z" fill="#347AF4"/>
<path d="M27.7177 33.2747H65.9736V35.1497H27.7177V33.2747Z" fill="#347AF4"/>
<path d="M27.7177 39.1151H55.7525V40.9901H27.7177V39.1151Z" fill="#347AF4"/>
<path d="M3.81848 72.3525C3.98965 72.4235 4.17804 72.4422 4.35983 72.4062C4.54163 72.3703 4.70868 72.2812 4.83989 72.1503L15.3938 61.6236H62.131C62.3796 61.6236 62.6181 61.5248 62.7939 61.349C62.9697 61.1732 63.0685 60.9347 63.0685 60.6861V48.0675H61.1935V59.7486H15.0061C14.7579 59.7486 14.5197 59.847 14.3439 60.0223L5.11536 69.2273V22.0695H17.8691V20.1945H4.17786C3.92922 20.1945 3.69076 20.2933 3.51494 20.4691C3.33913 20.6449 3.24036 20.8834 3.24036 21.132V71.4866C3.24035 71.6719 3.29526 71.853 3.39816 72.0072C3.50105 72.1613 3.64732 72.2815 3.81848 72.3525V72.3525Z" fill="#DD911F"/>
<path d="M7.84473 24.5659H9.71973V26.875H7.84473V24.5659Z" fill="#DD911F"/>
<path d="M7.84473 28.7223H9.71973V52.9688H7.84473V28.7223Z" fill="#DD911F"/>
<path d="M17.869 49.005H64.6062L75.1601 59.5313C75.2913 59.6621 75.4584 59.7512 75.6402 59.7872C75.8219 59.8231 76.0103 59.8044 76.1815 59.7334C76.3526 59.6624 76.4989 59.5422 76.6018 59.3881C76.7047 59.234 76.7596 59.0528 76.7596 58.8675V8.51347C76.7596 8.26483 76.6609 8.02637 76.4851 7.85056C76.3092 7.67474 76.0708 7.57597 75.8221 7.57597H17.869C17.6204 7.57597 17.3819 7.67474 17.2061 7.85056C17.0303 8.02637 16.9315 8.26483 16.9315 8.51347V48.0675C16.9315 48.3162 17.0303 48.5546 17.2061 48.7304C17.3819 48.9063 17.6204 49.005 17.869 49.005V49.005ZM18.8065 9.45097H74.8846V56.6094L65.6562 47.4038C65.4804 47.2285 65.2423 47.13 64.994 47.13H18.8065V9.45097Z" fill="#347AF4"/>
</svg>
